<svg width="28.000000" height="28.000000" viewBox="0 0 28 28" fill="none" xmlns="http://www.w3.org/2000/svg" xmlns:xlink="http://www.w3.org/1999/xlink">
	<desc>
			Created with Pixso.
	</desc>
	<defs>
		<clipPath id="clip53_3862">
			<rect id="email" width="28.000000" height="28.000000" fill="white" fill-opacity="0"/>
		</clipPath>
	</defs>
	<g clip-path="url(#clip53_3862)">
		<path id="path" d="M23.91 4.95L4.08 4.95C2.97 4.95 2.04 5.89 2.04 7L2.04 21C2.04 22.1 2.97 23.04 4.08 23.04L23.91 23.04C25.02 23.04 25.95 22.1 25.95 21L25.95 7C25.95 5.89 25.02 4.95 23.91 4.95ZM4.08 6.7L23.91 6.7C24.09 6.7 24.2 6.82 24.2 7L24.2 7.7L14 14.11L3.79 7.7L3.79 7C3.79 6.82 3.9 6.7 4.08 6.7ZM23.91 21.29L4.08 21.29C3.9 21.29 3.79 21.17 3.79 21L3.79 9.74L13.53 15.86C13.65 15.98 13.82 15.98 14 15.98C14.17 15.98 14.35 15.92 14.46 15.86L24.2 9.74L24.2 21C24.2 21.17 24.09 21.29 23.91 21.29Z" fill="#FFFFFF" fill-opacity="1.000000" fill-rule="nonzero"/>
	</g>
</svg>
