<svg width="20.000000" height="20.149902" viewBox="0 0 20 20.1499" fill="none" xmlns="http://www.w3.org/2000/svg" xmlns:xlink="http://www.w3.org/1999/xlink">
	<desc>
			Created with Pixso.
	</desc>
	<defs/>
	<path id="path" d="M18.81 0.85C18.75 0.71 18.67 0.59 18.57 0.48C18.47 0.37 18.35 0.29 18.21 0.23C17.99 0.14 15.98 -0.63 13 1.25L6.99 1.25C4 -0.64 2 0.14 1.78 0.23C1.64 0.29 1.52 0.37 1.42 0.48C1.32 0.59 1.24 0.71 1.18 0.85C0.5 2.57 0.71 4.4 0.98 5.45C0.16 6.55 0 7.57 0 9.03C0 13.66 3.31 14.97 5.9 15.44C5.73 15.83 5.62 16.24 5.56 16.66C5.55 16.71 5.55 16.76 5.55 16.81L5.55 17.81C5.04 17.71 4.48 17.5 4.11 17.14C2.86 15.88 1.57 14.59 0 14.59L0 16.81C0.65 16.81 1.7 17.86 2.54 18.71C3.87 20.04 5.9 20.14 6.54 20.14C6.62 20.14 6.68 20.14 6.71 20.14C6.78 20.14 6.85 20.13 6.92 20.11C6.99 20.1 7.05 20.07 7.12 20.04C7.18 20.02 7.24 19.98 7.3 19.94C7.36 19.9 7.41 19.85 7.46 19.8C7.51 19.75 7.56 19.69 7.59 19.63C7.63 19.57 7.67 19.51 7.69 19.45C7.72 19.38 7.74 19.31 7.75 19.24C7.77 19.17 7.77 19.1 7.77 19.03L7.77 16.89C7.88 16.25 8.3 15.6 8.5 15.43C8.58 15.36 8.65 15.27 8.71 15.18C8.77 15.09 8.81 15 8.84 14.89C8.87 14.79 8.88 14.68 8.88 14.57C8.88 14.47 8.86 14.36 8.83 14.26C8.8 14.16 8.75 14.06 8.69 13.97C8.64 13.88 8.56 13.8 8.48 13.73C8.4 13.66 8.31 13.61 8.21 13.57C8.11 13.52 8.01 13.5 7.9 13.48C4.3 13.07 2.22 12.21 2.22 9.03C2.22 7.65 2.36 7.19 3.04 6.45C3.33 6.13 3.41 5.68 3.25 5.28C3.12 4.97 2.76 3.58 3.08 2.22C3.62 2.18 4.64 2.34 6.04 3.29C6.22 3.41 6.44 3.48 6.66 3.48L13.33 3.48C13.56 3.48 13.76 3.41 13.95 3.29C15.36 2.33 16.37 2.2 16.91 2.21C17.23 3.57 16.87 4.97 16.75 5.28C16.71 5.38 16.68 5.48 16.67 5.58C16.66 5.69 16.66 5.79 16.68 5.89C16.7 6 16.73 6.1 16.78 6.19C16.82 6.28 16.88 6.37 16.95 6.45C17.63 7.19 17.77 7.64 17.77 9.03C17.77 12.22 15.69 13.08 12.09 13.48C11.99 13.49 11.88 13.52 11.78 13.56C11.68 13.61 11.59 13.66 11.51 13.73C11.43 13.8 11.35 13.88 11.29 13.97C11.23 14.06 11.19 14.16 11.16 14.26C11.12 14.36 11.11 14.47 11.11 14.58C11.11 14.68 11.12 14.79 11.15 14.89C11.18 15 11.22 15.09 11.28 15.19C11.34 15.28 11.41 15.36 11.49 15.43C12.01 15.87 12.22 16.27 12.22 16.81L12.22 20.14L14.44 20.14L14.44 16.81C14.44 16.28 14.34 15.82 14.18 15.43C16.71 14.93 20 13.57 20 9.03C20 7.56 19.83 6.54 19.01 5.45C19.28 4.4 19.49 2.57 18.81 0.85Z" fill="#FFFFFF" fill-opacity="1.000000" fill-rule="nonzero"/>
</svg>
