<svg width="28.000000" height="28.000000" viewBox="0 0 28 28" fill="none" xmlns="http://www.w3.org/2000/svg" xmlns:xlink="http://www.w3.org/1999/xlink">
	<desc>
			Created with Pixso.
	</desc>
	<defs>
		<clipPath id="clip53_3880">
			<rect id="instagram" width="28.000000" height="28.000000" fill="white" fill-opacity="0"/>
		</clipPath>
	</defs>
	<g clip-path="url(#clip53_3880)">
		<path id="path" d="M14 8.39C10.89 8.39 8.39 10.89 8.39 14C8.39 17.1 10.89 19.6 14 19.6C17.1 19.6 19.6 17.1 19.6 14C19.6 10.89 17.1 8.39 14 8.39ZM14 17.64C11.99 17.64 10.35 16 10.35 14C10.35 11.99 11.99 10.35 14 10.35C16 10.35 17.64 11.99 17.64 14C17.64 16 16 17.64 14 17.64ZM19.83 6.85C19.11 6.85 18.52 7.43 18.52 8.16C18.52 8.88 19.11 9.47 19.83 9.47C20.56 9.47 21.14 8.89 21.14 8.16C21.14 7.43 20.56 6.85 19.83 6.85ZM24.93 14C24.93 12.49 24.94 10.99 24.86 9.48C24.77 7.73 24.37 6.18 23.09 4.9C21.81 3.62 20.26 3.22 18.51 3.14C17 3.05 15.5 3.07 14 3.07C12.49 3.07 10.99 3.05 9.49 3.14C7.74 3.22 6.18 3.62 4.9 4.9C3.62 6.18 3.22 7.73 3.14 9.48C3.05 10.99 3.07 12.49 3.07 14C3.07 15.5 3.05 17 3.14 18.51C3.22 20.26 3.62 21.81 4.9 23.09C6.19 24.37 7.74 24.77 9.49 24.85C11 24.94 12.49 24.92 14 24.92C15.51 24.92 17 24.94 18.51 24.85C20.26 24.77 21.81 24.37 23.09 23.09C24.37 21.81 24.77 20.26 24.86 18.51C24.94 17 24.93 15.5 24.93 14ZM22.52 20.44C22.32 20.94 22.08 21.31 21.7 21.69C21.31 22.08 20.94 22.32 20.44 22.52C19 23.09 15.59 22.96 14 22.96C12.4 22.96 8.98 23.09 7.54 22.52C7.05 22.32 6.68 22.08 6.29 21.7C5.91 21.31 5.67 20.94 5.47 20.45C4.9 19 5.03 15.59 5.03 14C5.03 12.4 4.9 8.98 5.47 7.54C5.67 7.05 5.91 6.68 6.29 6.29C6.68 5.91 7.05 5.67 7.54 5.47C8.98 4.9 12.4 5.03 14 5.03C15.59 5.03 19.01 4.9 20.45 5.47C20.94 5.67 21.31 5.91 21.7 6.29C22.08 6.68 22.32 7.05 22.52 7.54C23.09 8.98 22.96 12.4 22.96 14C22.96 15.59 23.09 19 22.52 20.44Z" fill="#FFFFFF" fill-opacity="1.000000" fill-rule="nonzero"/>
	</g>
</svg>
