<svg width="28.000000" height="28.000000" viewBox="0 0 28 28" fill="none" xmlns="http://www.w3.org/2000/svg" xmlns:xlink="http://www.w3.org/1999/xlink">
	<desc>
			Created with Pixso.
	</desc>
	<defs>
		<clipPath id="clip53_3876">
			<rect id="linkedin-fill" width="28.000000" height="28.000000" fill="white" fill-opacity="0"/>
		</clipPath>
	</defs>
	<g clip-path="url(#clip53_3876)">
		<path id="path" d="M24.06 3.06L3.93 3.06C3.45 3.06 3.06 3.45 3.06 3.93L3.06 24.06C3.06 24.54 3.45 24.93 3.93 24.93L24.06 24.93C24.54 24.93 24.93 24.54 24.93 24.06L24.93 3.93C24.93 3.45 24.54 3.06 24.06 3.06ZM9.55 21.7L6.3 21.7L6.3 11.26L9.55 11.26L9.55 21.7ZM7.92 9.83C6.89 9.83 6.04 8.99 6.04 7.95C6.04 6.91 6.89 6.07 7.92 6.07C8.96 6.07 9.81 6.91 9.81 7.95C9.8 8.99 8.96 9.83 7.92 9.83ZM21.7 21.7L18.45 21.7L18.45 16.62C18.45 15.41 18.43 13.85 16.77 13.85C15.08 13.85 14.82 15.17 14.82 16.53L14.82 21.7L11.58 21.7L11.58 11.26L14.69 11.26L14.69 12.69L14.74 12.69C15.17 11.87 16.23 11 17.81 11C21.09 11 21.7 13.16 21.7 15.97L21.7 21.7Z" fill="#FFFFFF" fill-opacity="1.000000" fill-rule="nonzero"/>
	</g>
</svg>
