<svg width="28.000000" height="28.000000" viewBox="0 0 28 28" fill="none" xmlns="http://www.w3.org/2000/svg" xmlns:xlink="http://www.w3.org/1999/xlink">
	<desc>
			Created with Pixso.
	</desc>
	<defs>
		<clipPath id="clip53_3878">
			<rect id="medium-fill" width="28.000000" height="28.000000" fill="white" fill-opacity="0"/>
		</clipPath>
	</defs>
	<g clip-path="url(#clip53_3878)">
		<path id="path" d="M15.64 14C15.64 18.03 12.4 21.29 8.4 21.29C4.4 21.29 1.16 18.03 1.16 14C1.16 9.98 4.4 6.71 8.4 6.71C12.4 6.71 15.64 9.98 15.64 14ZM23.58 14C23.58 17.79 21.96 20.86 19.96 20.86C17.96 20.86 16.34 17.79 16.34 14C16.34 10.21 17.96 7.14 19.96 7.14C21.96 7.14 23.58 10.21 23.58 14ZM26.83 14C26.83 17.4 26.26 20.15 25.56 20.15C24.85 20.15 24.28 17.4 24.28 14C24.28 10.61 24.85 7.86 25.56 7.86C26.26 7.86 26.83 10.61 26.83 14Z" fill="#FFFFFF" fill-opacity="1.000000" fill-rule="nonzero"/>
	</g>
</svg>
