<svg width="36.472229" height="21.000000" viewBox="0 0 36.4722 21" fill="none" xmlns="http://www.w3.org/2000/svg" xmlns:xlink="http://www.w3.org/1999/xlink">
	<desc>
			Created with Pixso.
	</desc>
	<defs/>
	<path id="Vector" d="M4.05 10.5C4.05 11.46 3.14 12.25 2.02 12.25C0.9 12.25 0 11.46 0 10.5C0 9.53 0.9 8.75 2.02 8.75C3.14 8.75 4.05 9.53 4.05 10.5Z" fill="#FFFFFF" fill-opacity="1.000000" fill-rule="evenodd"/>
	<path id="Vector" d="M10 8.75L34.56 8.75C35.61 8.75 36.47 9.48 36.47 10.39L36.47 10.6C36.47 11.51 35.61 12.25 34.56 12.25L10 12.25C8.95 12.25 8.1 11.51 8.1 10.6L8.1 10.39C8.1 9.48 8.95 8.75 10 8.75Z" fill="#FFFFFF" fill-opacity="1.000000" fill-rule="evenodd"/>
	<path id="Vector" d="M1.9 17.5L34.56 17.5C35.61 17.5 36.47 18.23 36.47 19.14L36.47 19.35C36.47 20.26 35.61 21 34.56 21L1.9 21C0.85 21 0 20.26 0 19.35L0 19.14C0 18.23 0.85 17.5 1.9 17.5Z" fill="#FFFFFF" fill-opacity="1.000000" fill-rule="evenodd"/>
	<path id="Vector" d="M1.9 0L34.56 0C35.61 0 36.47 0.73 36.47 1.64L36.47 1.85C36.47 2.76 35.61 3.5 34.56 3.5L1.9 3.5C0.85 3.5 0 2.76 0 1.85L0 1.64C0 0.73 0.85 0 1.9 0Z" fill="#FFFFFF" fill-opacity="1.000000" fill-rule="evenodd"/>
</svg>
