<?xml version="1.0" standalone="no"?><!DOCTYPE svg PUBLIC "-//W3C//DTD SVG 1.1//EN" "http://www.w3.org/Graphics/SVG/1.1/DTD/svg11.dtd"><svg t="1717144870629" class="icon" viewBox="0 0 1024 1024" version="1.1" xmlns="http://www.w3.org/2000/svg" p-id="4273" xmlns:xlink="http://www.w3.org/1999/xlink" width="24" height="24"><path d="M688.7424 984.6784a20.48 20.48 0 0 1-20.48-20.48v-199.4752a20.48 20.48 0 0 1 20.48-20.48h201.5232V136.6016a18.8416 18.8416 0 0 0-18.8416-18.8416H156.2624a18.8416 18.8416 0 0 0-18.8416 18.8416v788.48a18.8416 18.8416 0 0 0 18.8416 18.8416h448.1024a20.48 20.48 0 1 1 0 40.96H156.2624a59.8016 59.8016 0 0 1-59.8016-59.8016V136.6016a59.8016 59.8016 0 0 1 59.8016-59.5968h715.1616a59.8016 59.8016 0 0 1 59.8016 59.8016v628.3264a20.48 20.48 0 0 1-6.5536 14.5408L702.464 979.3536a20.48 20.48 0 0 1-13.7216 5.3248z m20.48-199.68v133.12l148.0704-133.12z" fill="#ffffff" p-id="4274"></path><path d="M800.9728 630.784H235.3152a20.48 20.48 0 0 1 0-40.96h565.6576a20.48 20.48 0 0 1 0 40.96zM521.4208 786.8416H225.28a20.48 20.48 0 0 1 0-40.96h296.96a20.48 20.48 0 0 1 0 40.96zM503.3984 376.4224a93.184 93.184 0 1 1 93.184-93.184 93.184 93.184 0 0 1-93.184 93.184z m0-145.2032a52.224 52.224 0 1 0 52.224 52.224 52.224 52.224 0 0 0-52.224-52.224z" fill="#ffffff" p-id="4275"></path><path d="M628.1216 501.1456a20.48 20.48 0 0 1-20.48-20.48 104.2432 104.2432 0 0 0-208.4864 0 20.48 20.48 0 0 1-40.96 0 145.2032 145.2032 0 0 1 290.4064 0 20.48 20.48 0 0 1-20.48 20.48z" fill="#ffffff" p-id="4276"></path></svg>