<svg width="20.000000" height="20.000000" viewBox="0 0 20 20" fill="none" xmlns="http://www.w3.org/2000/svg" xmlns:xlink="http://www.w3.org/1999/xlink">
	<desc>
			Created with Pixso.
	</desc>
	<defs>
		<clipPath id="clip61_3798">
			<rect id="resume" width="20.000000" height="20.000000" fill="white" fill-opacity="0"/>
		</clipPath>
	</defs>
	<g clip-path="url(#clip61_3798)">
		<path id="path" d="M24.3 20.68L24.3 22.5L15.21 22.5L15.21 20.68L24.3 20.68ZM13.39 12.5C13.89 12.49 14.39 12.53 14.89 12.6C15.38 12.66 15.87 12.77 16.36 12.9C16.84 13.04 17.31 13.21 17.77 13.41C18.23 13.61 18.67 13.84 19.1 14.1L19.48 14.35L18.46 15.86C18.09 15.61 17.7 15.39 17.29 15.19C16.89 15 16.47 14.84 16.04 14.71C15.61 14.58 15.18 14.48 14.73 14.41C14.29 14.35 13.84 14.31 13.39 14.31C13.12 14.31 12.85 14.33 12.57 14.35C12.3 14.37 12.03 14.41 11.76 14.46C11.5 14.51 11.23 14.57 10.97 14.64C10.7 14.72 10.44 14.8 10.19 14.9C9.93 14.99 9.68 15.1 9.44 15.22C9.19 15.34 8.95 15.47 8.72 15.61C8.48 15.75 8.26 15.9 8.04 16.06C7.82 16.22 7.6 16.39 7.4 16.57C7.19 16.75 7 16.94 6.81 17.14C6.62 17.33 6.44 17.54 6.27 17.75C6.1 17.97 5.94 18.19 5.79 18.42C5.64 18.64 5.5 18.88 5.37 19.12C5.25 19.36 5.13 19.6 5.02 19.86C4.92 20.11 4.82 20.36 4.74 20.62C4.65 20.88 4.58 21.15 4.52 21.41C4.46 21.68 4.41 21.95 4.38 22.22L4.38 22.5L2.52 22.46C2.54 22.29 2.56 22.12 2.58 21.96C2.6 21.79 2.63 21.62 2.66 21.46C2.69 21.29 2.72 21.12 2.76 20.96C2.8 20.8 2.84 20.63 2.88 20.47C2.93 20.31 2.98 20.15 3.03 19.99C3.08 19.83 3.14 19.67 3.2 19.51C3.26 19.35 3.33 19.2 3.39 19.04C3.46 18.89 3.53 18.73 3.61 18.58C3.68 18.43 3.76 18.28 3.84 18.13C3.92 17.99 4.01 17.84 4.09 17.7C4.18 17.55 4.27 17.41 4.37 17.27C4.46 17.13 4.56 17 4.66 16.86C4.76 16.73 4.87 16.59 4.98 16.46C5.08 16.33 5.19 16.2 5.31 16.08C5.42 15.96 5.54 15.83 5.65 15.71C5.77 15.59 5.9 15.48 6.02 15.36C6.14 15.25 6.27 15.14 6.4 15.03C6.53 14.92 6.66 14.82 6.8 14.71C6.93 14.61 7.07 14.51 7.21 14.42C7.35 14.32 7.49 14.23 7.63 14.14C7.77 14.05 7.92 13.97 8.06 13.88C8.21 13.8 8.36 13.72 8.51 13.65C8.66 13.57 8.82 13.5 8.97 13.43C9.12 13.36 9.28 13.3 9.44 13.24C9.59 13.18 9.75 13.12 9.91 13.06C10.07 13.01 10.23 12.96 10.39 12.91C10.56 12.87 10.72 12.83 10.88 12.79C11.05 12.75 11.21 12.71 11.38 12.68C11.55 12.65 11.71 12.62 11.88 12.6C12.05 12.58 12.21 12.56 12.38 12.54C12.55 12.53 12.72 12.51 12.89 12.51C13.05 12.5 13.22 12.5 13.39 12.5ZM24.3 17.04L24.3 18.86L15.21 18.86L15.21 17.04L24.3 17.04ZM13.39 2.5C13.54 2.5 13.69 2.5 13.84 2.52C13.98 2.53 14.13 2.55 14.28 2.58C14.42 2.61 14.57 2.65 14.71 2.69C14.85 2.73 14.99 2.78 15.13 2.84C15.27 2.9 15.4 2.96 15.53 3.03C15.67 3.1 15.79 3.18 15.92 3.26C16.04 3.34 16.16 3.43 16.27 3.53C16.39 3.62 16.5 3.72 16.61 3.83C16.71 3.93 16.81 4.04 16.9 4.16C17 4.27 17.09 4.39 17.17 4.52C17.25 4.64 17.33 4.77 17.4 4.9C17.47 5.03 17.53 5.16 17.59 5.3C17.65 5.44 17.7 5.58 17.74 5.72C17.78 5.86 17.82 6.01 17.85 6.15C17.88 6.3 17.9 6.45 17.91 6.6C17.93 6.74 17.94 6.89 17.94 7.04C17.94 7.19 17.93 7.34 17.91 7.49C17.9 7.63 17.88 7.78 17.85 7.93C17.82 8.07 17.78 8.22 17.74 8.36C17.7 8.5 17.65 8.64 17.59 8.78C17.53 8.92 17.47 9.05 17.4 9.18C17.33 9.31 17.25 9.44 17.17 9.57C17.09 9.69 17 9.81 16.9 9.92C16.81 10.04 16.71 10.15 16.61 10.25C16.5 10.36 16.39 10.46 16.27 10.55C16.16 10.65 16.04 10.74 15.92 10.82C15.79 10.9 15.67 10.98 15.53 11.05C15.4 11.12 15.27 11.18 15.13 11.24C14.99 11.3 14.85 11.35 14.71 11.39C14.57 11.43 14.42 11.47 14.28 11.5C14.13 11.53 13.98 11.55 13.84 11.56C13.69 11.58 13.54 11.59 13.39 11.59C13.24 11.59 13.09 11.58 12.95 11.56C12.8 11.55 12.65 11.53 12.5 11.5C12.36 11.47 12.21 11.43 12.07 11.39C11.93 11.35 11.79 11.3 11.65 11.24C11.51 11.18 11.38 11.12 11.25 11.05C11.12 10.98 10.99 10.9 10.87 10.82C10.74 10.74 10.62 10.65 10.51 10.55C10.39 10.46 10.28 10.36 10.18 10.25C10.07 10.15 9.97 10.04 9.88 9.92C9.78 9.81 9.69 9.69 9.61 9.57C9.53 9.44 9.45 9.31 9.38 9.18C9.31 9.05 9.25 8.92 9.19 8.78C9.13 8.64 9.08 8.5 9.04 8.36C9 8.22 8.96 8.07 8.93 7.93C8.9 7.78 8.88 7.63 8.87 7.49C8.85 7.34 8.85 7.19 8.85 7.04C8.85 6.89 8.85 6.74 8.87 6.6C8.88 6.45 8.9 6.3 8.93 6.15C8.96 6.01 9 5.86 9.04 5.72C9.08 5.58 9.13 5.44 9.19 5.3C9.25 5.16 9.31 5.03 9.38 4.9C9.45 4.77 9.53 4.64 9.61 4.52C9.69 4.39 9.78 4.27 9.88 4.16C9.97 4.04 10.07 3.93 10.18 3.83C10.28 3.72 10.39 3.62 10.51 3.53C10.62 3.43 10.74 3.34 10.87 3.26C10.99 3.18 11.12 3.1 11.25 3.03C11.38 2.96 11.51 2.9 11.65 2.84C11.79 2.78 11.93 2.73 12.07 2.69C12.21 2.65 12.36 2.61 12.5 2.58C12.65 2.55 12.8 2.53 12.95 2.52C13.09 2.5 13.24 2.5 13.39 2.5ZM13.39 4.31C13.3 4.31 13.21 4.32 13.12 4.33C13.03 4.33 12.95 4.35 12.86 4.37C12.77 4.38 12.68 4.4 12.6 4.43C12.51 4.46 12.43 4.49 12.35 4.52C12.26 4.56 12.18 4.59 12.11 4.64C12.03 4.68 11.95 4.72 11.88 4.77C11.8 4.82 11.73 4.88 11.66 4.93C11.59 4.99 11.53 5.05 11.46 5.11C11.4 5.18 11.34 5.24 11.28 5.31C11.23 5.38 11.17 5.45 11.12 5.53C11.07 5.6 11.03 5.68 10.99 5.75C10.94 5.83 10.91 5.91 10.87 6C10.84 6.08 10.81 6.16 10.78 6.25C10.76 6.33 10.73 6.42 10.72 6.51C10.7 6.6 10.69 6.68 10.68 6.77C10.67 6.86 10.66 6.95 10.66 7.04C10.66 7.13 10.67 7.22 10.68 7.31C10.69 7.4 10.7 7.48 10.72 7.57C10.73 7.66 10.76 7.75 10.78 7.83C10.81 7.92 10.84 8 10.87 8.08C10.91 8.17 10.94 8.25 10.99 8.33C11.03 8.4 11.07 8.48 11.12 8.56C11.17 8.63 11.23 8.7 11.28 8.77C11.34 8.84 11.4 8.91 11.46 8.97C11.53 9.03 11.59 9.09 11.66 9.15C11.73 9.21 11.8 9.26 11.88 9.31C11.95 9.36 12.03 9.4 12.11 9.45C12.18 9.49 12.26 9.53 12.35 9.56C12.43 9.59 12.51 9.62 12.6 9.65C12.68 9.68 12.77 9.7 12.86 9.72C12.95 9.73 13.03 9.75 13.12 9.75C13.21 9.76 13.3 9.77 13.39 9.77C13.48 9.77 13.57 9.76 13.66 9.75C13.75 9.75 13.84 9.73 13.92 9.72C14.01 9.7 14.1 9.68 14.18 9.65C14.27 9.62 14.35 9.59 14.43 9.56C14.52 9.53 14.6 9.49 14.68 9.45C14.76 9.4 14.83 9.36 14.91 9.31C14.98 9.26 15.05 9.21 15.12 9.15C15.19 9.09 15.26 9.03 15.32 8.97C15.38 8.91 15.44 8.84 15.5 8.77C15.56 8.7 15.61 8.63 15.66 8.56C15.71 8.48 15.75 8.4 15.8 8.33C15.84 8.25 15.88 8.17 15.91 8.08C15.95 8 15.98 7.92 16 7.83C16.03 7.75 16.05 7.66 16.07 7.57C16.08 7.48 16.1 7.4 16.11 7.31C16.11 7.22 16.12 7.13 16.12 7.04C16.12 6.95 16.11 6.86 16.11 6.77C16.1 6.68 16.08 6.6 16.07 6.51C16.05 6.42 16.03 6.33 16 6.25C15.98 6.16 15.95 6.08 15.91 6C15.88 5.91 15.84 5.83 15.8 5.75C15.75 5.68 15.71 5.6 15.66 5.53C15.61 5.45 15.56 5.38 15.5 5.31C15.44 5.24 15.38 5.18 15.32 5.11C15.26 5.05 15.19 4.99 15.12 4.93C15.05 4.88 14.98 4.82 14.91 4.77C14.83 4.72 14.76 4.68 14.68 4.64C14.6 4.59 14.52 4.56 14.43 4.52C14.35 4.49 14.27 4.46 14.18 4.43C14.1 4.4 14.01 4.38 13.92 4.37C13.84 4.35 13.75 4.33 13.66 4.33C13.57 4.32 13.48 4.31 13.39 4.31Z" fill="#FFFFFF" fill-opacity="1.000000" fill-rule="nonzero"/>
	</g>
</svg>
